<svg width="34" height="26" viewBox="0 0 34 26" fill="none" xmlns="http://www.w3.org/2000/svg">
<path d="M33.9676 6.68422C33.8588 6.12252 33.6405 5.67348 33.2586 5.28023C32.8226 4.83119 32.2225 4.6064 31.6229 4.49482C31.4598 4.43848 30.5867 4.32582 30.7508 3.9889C30.8597 3.76465 31.0233 3.59619 31.2416 3.53932C31.3504 3.48353 31.4046 3.3714 31.1869 3.25928C29.6605 2.64178 27.9701 3.82044 27.5341 4.77486C26.9345 5.11177 26.2796 5.39235 25.6259 5.67402C25.0805 4.10157 23.8807 2.86603 22.4086 2.24853C20.3368 1.40624 18.7011 2.30432 18.1562 3.25928V2.97815C18.156 2.73263 18.107 2.48974 18.0123 2.2644C17.9177 2.03906 17.7793 1.83603 17.6057 1.66777C17.432 1.49951 17.2268 1.36958 17.0027 1.28595C16.7785 1.20232 16.5401 1.16676 16.3022 1.18145H16.1391C15.539 1.18145 14.7758 1.34991 12.9765 2.13586C12.7582 2.24853 12.4858 2.36066 12.1586 2.52911C12.3764 1.46203 11.8857 0.00224512 10.1958 0.00224512C8.94186 -0.054088 7.79685 0.956659 7.74215 2.24853C7.74215 2.92236 8.124 3.53986 8.66889 3.87677C8.39644 4.04469 8.0693 4.15736 7.74215 4.27002C6.59713 4.71906 5.45211 4.94331 4.19822 4.99965C2.99903 4.99965 2.18116 4.21369 2.18116 3.20294C2.18116 2.58545 2.61718 2.02374 3.2173 1.91161C3.27384 1.90756 3.32705 1.88256 3.36707 1.84123C3.4071 1.79991 3.43125 1.74506 3.43505 1.68682C3.43505 1.5747 3.43505 1.40624 3.32565 1.34991C3.1626 1.23778 2.94433 1.23778 2.78076 1.23778C2.29003 1.18145 1.69044 1.4057 1.19972 1.79895C0.76317 2.1922 0.327148 2.64124 0.108874 3.20294C0.0546998 3.42773 0 3.59619 0 3.82044C0 5.3929 1.36329 6.34731 2.9985 6.34731C4.25292 6.34731 6.10694 5.95406 9.15961 4.66273C9.75921 4.38215 10.2505 4.15736 10.5776 4.04523C10.3046 4.55061 10.0869 4.94331 9.70504 5.67348C9.15961 6.74056 8.72359 7.91976 8.50584 9.15476C8.50584 9.43534 8.28757 9.37955 8.124 9.37955C7.61846 9.09466 7.14337 8.75588 6.70653 8.3688C6.16111 7.97555 5.56151 7.7513 4.90722 7.7513C4.20029 7.80899 3.51777 8.04375 2.91908 8.43516C2.32038 8.82657 1.82366 9.36276 1.47217 9.99705C0.936773 10.933 0.654378 11.9994 0.654296 13.0856C0.654296 15.1629 2.12646 16.5106 4.96192 17.9704C7.9599 19.5428 8.72359 20.2166 8.72359 21.9012C8.72359 23.4731 7.74215 23.9785 6.97898 23.9785C5.99754 23.9785 5.17967 23.3047 4.90669 22.3503C4.79782 21.8449 4.58007 21.7886 4.25292 22.2939C3.92577 22.6872 3.7622 23.1362 3.7622 23.6416C3.81637 24.9893 4.90722 26 6.16058 26C7.14255 26 8.45114 25.4383 9.59616 23.0241C10.5776 20.8899 11.6132 19.1496 13.1401 18.1388C15.5385 16.5106 17.3925 15.0508 17.3925 11.8501C17.3383 9.54801 15.5937 7.69497 13.3584 7.52651C12.2128 7.58285 11.123 8.20035 10.414 9.15476C10.0322 9.49168 9.97748 9.15476 9.75974 9.15476C9.86861 8.08768 10.1958 7.07747 10.6318 6.17885C11.1225 5.05598 11.6132 4.21369 11.831 3.53986C12.7582 2.97815 13.7944 2.64124 14.8847 2.58545C15.4843 2.52911 16.0297 2.97815 16.0839 3.59619V3.76411C16.0839 4.32581 16.248 4.83119 16.5204 5.33656C16.7929 5.78614 17.2836 6.01039 17.829 6.01039C18.5375 6.01039 19.1918 5.56081 19.5189 4.94331C19.6283 4.6064 19.4101 4.49427 19.1918 4.55061C19.1376 4.6064 19.0287 4.66273 18.974 4.71852C18.974 4.55061 18.974 4.32581 19.0829 4.15736C19.3012 3.53986 20.3915 2.58545 22.1361 3.31507C22.4633 3.42774 22.7357 3.59619 23.0087 3.76465V3.82044C22.1908 3.59619 21.3183 4.04523 20.9911 4.83119C20.6098 5.61715 20.9369 6.5721 21.7543 6.96535C21.809 6.96535 21.809 7.02114 21.8637 7.02114C22.5742 7.2457 23.3338 7.2457 24.0443 7.02114C24.2626 6.90902 24.535 6.85268 25.0258 6.62789C25.4602 7.96922 25.517 9.40985 25.1893 10.783C24.8622 10.3903 24.4262 10.0534 23.9901 9.88492C21.9726 9.04263 20.2279 10.5588 19.6283 12.187C19.0287 13.8152 19.3554 14.9387 19.9008 15.6683C20.4462 16.3421 21.373 16.9033 22.6268 17.465C23.5536 17.8019 24.3715 18.2515 25.0805 18.9253C25.4623 19.2617 25.5712 19.8234 25.3529 20.3288C25.1352 20.9463 24.535 21.2274 23.9354 21.0589C23.39 20.8905 22.954 20.4414 22.8451 19.8797C22.7904 19.6549 22.7357 19.5986 22.5721 19.6549C22.2997 19.7671 22.0273 20.0482 21.9179 20.3288C21.6454 21.1711 22.1361 22.1255 22.954 22.4066C24.4809 23.0241 25.7348 21.6201 26.2255 20.3851C26.3885 19.9919 27.0433 19.3744 28.079 18.4757C29.1151 17.5777 30.4237 16.1737 30.9139 14.826C31.8959 12.3555 30.3143 10.1092 29.224 9.66013C27.9701 9.15476 27.1522 9.54801 26.2796 10.4461H26.2255C26.3343 9.09897 26.2255 7.7513 25.8436 6.45943C26.1708 6.34731 26.7704 6.06673 27.3163 5.84194C27.3163 6.34731 27.5882 6.85268 28.079 7.07693C28.7333 7.35806 29.2782 7.13327 30.0418 6.96481C30.8183 6.68407 31.6644 6.68407 32.4408 6.96481C32.9315 7.13327 33.368 7.5823 33.5316 8.08822C33.5858 8.3688 33.804 8.42514 33.8587 8.20035C34.0218 7.69497 34.0218 7.13327 33.9676 6.68422ZM10.9589 2.97815C10.5224 3.20294 10.0869 3.3714 9.65034 3.48353C9.21431 3.20294 8.88717 2.69757 8.88717 2.1922C8.88717 1.5747 9.32371 1.06933 9.92331 1.01299C10.5776 1.01299 11.0136 1.46257 11.0136 2.30432C11.0683 2.52911 11.0136 2.7539 10.9589 2.97815ZM22.5721 6.06673C22.0273 5.84194 21.7001 5.50502 21.9179 4.99965C22.0814 4.49427 22.6815 4.10157 24.0443 4.66273C24.3715 5.05598 24.6439 5.44869 24.8622 5.95406C24.099 6.23518 23.3358 6.29098 22.5721 6.06673Z" fill="white"/>
</svg>
